<?xml version="1.0" encoding="UTF-8"?>
<svg version="1.1" xmlns="http://www.w3.org/2000/svg" width="750" height="650">
<path d="M0 0 C1.03110204 -0.00145344 2.06220407 -0.00290688 3.12455162 -0.00440437 C6.60203574 -0.00807257 10.07947626 -0.00457411 13.55696011 -0.0011425 C16.06630346 -0.00229399 18.57564665 -0.00388171 21.08498949 -0.00586975 C26.55233665 -0.00918301 32.01967031 -0.00936939 37.48701763 -0.00682259 C45.61699837 -0.00304573 53.74697076 -0.00497091 61.87695144 -0.00803089 C76.39539079 -0.01330181 90.91382575 -0.0128382 105.43226552 -0.00995198 C118.13679917 -0.00743868 130.84133121 -0.00677867 143.54586506 -0.00797462 C144.80882703 -0.0080892 144.80882703 -0.0080892 146.09730338 -0.00820609 C149.5149458 -0.00851742 152.93258823 -0.00883582 156.35023065 -0.00916586 C188.42413211 -0.01222633 220.49803076 -0.00944901 252.57193178 -0.00406896 C281.08390541 0.00067724 309.59587458 0.00025182 338.10784817 -0.00452995 C370.12374405 -0.0098814 402.13963746 -0.01200973 434.15553373 -0.00891769 C437.56672124 -0.00859696 440.97790875 -0.00828412 444.38909626 -0.00797462 C445.64902621 -0.00785601 445.64902621 -0.00785601 446.93440929 -0.007735 C459.63339279 -0.00659625 472.33237451 -0.00793016 485.03135777 -0.01045418 C499.46602919 -0.01330883 513.90069553 -0.01260844 528.33536632 -0.00717343 C536.41963011 -0.00423015 544.50388288 -0.00405555 552.58814639 -0.00781961 C558.61299974 -0.01031608 564.63783869 -0.00762204 570.66269117 -0.00284503 C573.10876073 -0.00172206 575.55483176 -0.0023094 578.0009004 -0.00472082 C581.30961733 -0.00773407 584.61827303 -0.00467054 587.92698669 0 C588.89049143 -0.00234117 589.85399617 -0.00468233 590.84669802 -0.00709444 C591.72592372 -0.00459092 592.60514943 -0.00208741 593.51101834 0.00049198 C594.26796547 0.00055974 595.02491261 0.00062749 595.80479753 0.00069731 C597.9483242 0.12869249 599.83950817 0.53801419 601.90057278 1.12584114 C601.90057278 1.78584114 601.90057278 2.44584114 601.90057278 3.12584114 C602.76682278 3.18771614 603.63307278 3.24959114 604.52557278 3.31334114 C608.90973708 4.3687881 610.69235866 5.99401308 613.90057278 9.12584114 C613.90057278 9.78584114 613.90057278 10.44584114 613.90057278 11.12584114 C614.89057278 11.45584114 615.88057278 11.78584114 616.90057278 12.12584114 C623.88010123 20.32766722 622.59296786 31.46026092 622.52203274 41.50393867 C622.52636453 43.48749032 622.53288306 45.47103819 622.5413928 47.45457631 C622.55836257 52.89138586 622.544218 58.3277339 622.52487803 63.7645191 C622.50943943 69.63298898 622.52285582 75.50140275 622.53262234 81.36987495 C622.54714476 92.85988685 622.53491944 104.34972197 622.51350909 115.83971711 C622.49674996 125.17628821 622.49033101 134.51281825 622.49177456 143.8494072 C622.49191207 144.84502197 622.49191207 144.84502197 622.49205237 145.86075018 C622.49244553 148.55517306 622.49289516 151.24959593 622.49342375 153.94401879 C622.49829257 179.2083231 622.47564671 204.47253443 622.43946753 229.73680984 C622.4074642 252.18087792 622.39542597 274.62486662 622.40154934 297.06895638 C622.40193618 298.51054508 622.40232264 299.95213379 622.40270871 301.3937225 C622.40290006 302.10641877 622.4030914 302.81911505 622.40328855 303.55340818 C622.40424289 307.14105798 622.40515726 310.72870779 622.40602779 314.31635761 C622.40628848 315.37805166 622.40628848 315.37805166 622.40655444 316.46119408 C622.41090929 335.22016978 622.40089626 353.97913692 622.38618994 372.73810655 C622.3856698 373.40537521 622.38514965 374.07264386 622.38461375 374.76013278 C622.38383473 375.75920303 622.38383473 375.75920303 622.38303998 376.77845651 C622.38252224 377.44328022 622.3820045 378.10810393 622.38147107 378.79307381 C622.38042299 380.13195189 622.37936277 381.47082997 622.37829035 382.80970804 C622.37038623 392.8055912 622.36903893 402.8014555 622.37058926 412.79734039 C622.37202789 424.16091301 622.36235729 435.52441431 622.3386429 446.88796326 C622.32677124 452.68726733 622.31966559 458.48647192 622.32548046 464.28578758 C622.33064401 469.59223308 622.32199321 474.89846818 622.30220586 480.20487765 C622.29745779 482.12662286 622.29777663 484.0483885 622.30361623 485.9701307 C622.31077916 488.57903892 622.29954874 491.18724642 622.28368282 493.79610157 C622.29013463 494.54493981 622.29658643 495.29377805 622.30323374 496.06530836 C622.24467021 501.1837495 621.13105005 504.62366357 618.90057278 509.12584114 C618.24057278 509.12584114 617.58057278 509.12584114 616.90057278 509.12584114 C616.57057278 510.44584114 616.24057278 511.76584114 615.90057278 513.12584114 C615.24057278 513.12584114 614.58057278 513.12584114 613.90057278 513.12584114 C613.66725246 513.73170052 613.43393215 514.33755989 613.19354153 514.96177864 C611.55972957 517.69631587 610.07184638 518.39368981 607.21307278 519.75084114 C605.969772 520.35798958 605.969772 520.35798958 604.70135403 520.97740364 C597.81087032 523.80279026 592.03359452 524.41407153 584.64151669 524.37752342 C583.61744762 524.3804303 582.59337855 524.38333719 581.53827709 524.38633215 C578.09668624 524.39364801 574.65527277 524.38668127 571.21368313 524.37980843 C568.72537504 524.38211222 566.23706763 524.3852882 563.74876165 524.38926291 C558.33347941 524.39588205 552.9182517 524.39626767 547.50296879 524.39116859 C539.45029082 524.38360672 531.39764652 524.38746951 523.34496878 524.39358521 C508.96328836 524.40412084 494.5816257 524.40320225 480.19994359 524.39742738 C467.61437769 524.39239848 455.02881831 524.39108184 442.44325161 524.39347267 C441.60878155 524.39362544 440.77431149 524.39377821 439.91455447 524.39393561 C436.52726312 524.39455828 433.13997178 524.39519508 429.75268045 524.39585514 C397.9700868 524.40197467 366.18750447 524.39642379 334.40491257 524.38566134 C306.16110965 524.37616997 277.91732476 524.37701922 249.673522 524.38658333 C217.94946913 524.39729001 186.22542628 524.40154069 154.50137186 524.3953588 C151.12021256 524.39471736 147.73905325 524.39409168 144.35789394 524.39347267 C143.10908053 524.39323544 143.10908053 524.39323544 141.83503856 524.39299341 C129.25664557 524.3907174 116.67825981 524.39338101 104.09986782 524.39843178 C89.79927282 524.40414542 75.49869837 524.40273105 61.19810593 524.39187029 C53.19221374 524.38599087 45.18636604 524.38562423 37.18047498 524.39316264 C31.20870867 524.3981661 25.23700031 524.39275253 19.26523751 524.38321349 C16.84474673 524.38097248 14.42425001 524.38213136 12.00376302 524.38696507 C8.72229911 524.39301735 5.44107986 524.38683802 2.15962887 524.37752342 C1.2125986 524.38220575 0.26556832 524.38688809 -0.71015984 524.39171231 C-10.40753086 524.33642851 -19.46360791 521.88480801 -26.59942722 515.00084114 C-29.09942722 512.12584114 -29.09942722 512.12584114 -29.09942722 510.12584114 C-29.75942722 510.12584114 -30.41942722 510.12584114 -31.09942722 510.12584114 C-34.57919725 503.62018413 -35.24814173 498.40944506 -35.22526836 491.10631752 C-35.2267218 490.30006878 -35.22817525 489.49382004 -35.22967273 488.66313952 C-35.23333392 485.95053326 -35.22984573 483.23798316 -35.22641087 480.52537727 C-35.22756263 478.56534499 -35.22915054 476.60531293 -35.23113811 474.64528131 C-35.23532375 469.25047774 -35.23324416 463.85569179 -35.23015189 458.46088815 C-35.22789492 452.64623725 -35.2313789 446.83158945 -35.23413181 441.01693916 C-35.23858529 429.6225609 -35.23761491 418.22818921 -35.23471917 406.83381069 C-35.23246349 397.57577134 -35.23215334 388.31773384 -35.23324299 379.05969429 C-35.23339622 377.74351877 -35.23354945 376.42734324 -35.23370733 375.07128361 C-35.23394527 373.06798038 -35.23418648 371.06467715 -35.23443422 369.06137392 C-35.23749423 344.01958369 -35.23471817 318.97779706 -35.22933733 293.93600739 C-35.22459161 271.68076125 -35.22501623 249.42552083 -35.22979832 227.17027473 C-35.23515125 202.17471081 -35.23727723 177.17915006 -35.23418605 152.18358564 C-35.23386533 149.51971976 -35.23355312 146.85585388 -35.23324299 144.19198799 C-35.23308871 142.88121411 -35.23293444 141.57044024 -35.23277549 140.21994594 C-35.231911 130.96987267 -35.23337175 121.71980143 -35.23572254 112.46972847 C-35.23852318 101.20152679 -35.23777667 89.93333209 -35.2324418 78.66513121 C-35.22980837 72.91271622 -35.2287937 67.16031286 -35.23209095 61.40789795 C-35.23506123 56.14645854 -35.23344877 50.8850416 -35.2281134 45.62360424 C-35.22699236 43.71587138 -35.2275735 41.80813665 -35.22998919 39.90040499 C-35.23301251 37.31536427 -35.22992846 34.73040136 -35.22526836 32.14536476 C-35.22760953 31.39786498 -35.2299507 30.6503652 -35.23236281 29.88021392 C-35.21891551 26.16952722 -34.98783942 22.73407991 -34.09942722 19.12584114 C-33.43942722 19.12584114 -32.77942722 19.12584114 -32.09942722 19.12584114 C-32.03755222 18.42459114 -31.97567722 17.72334114 -31.91192722 17.00084114 C-30.34908842 11.47079614 -25.81286096 7.2298097 -21.09942722 4.12584114 C-17.78692722 3.37584114 -17.78692722 3.37584114 -15.09942722 3.12584114 C-15.09942722 2.46584114 -15.09942722 1.80584114 -15.09942722 1.12584114 C-10.10084863 -0.19050829 -5.12813253 -0.01249091 0 0 Z " fill="#7C9CED" transform="translate(86.09942722320557,62.87415885925293)"/>
<path d="M0 0 C103.13076923 0 103.13076923 0 116.40625 12.2109375 C119.5821301 15.77601859 121.85168243 19.75544528 124 24 C124.34289062 24.67546875 124.68578125 25.3509375 125.0390625 26.046875 C128.9222694 35.41012155 128.29429714 47.48812774 125.0625 56.9375 C121.36078319 65.32946027 115.1361623 72.63425438 107 77 C106.34 77 105.68 77 105 77 C105.33 77.99 105.66 78.98 106 80 C108.58060989 81.33319428 108.58060989 81.33319428 111.6875 82.4375 C116.28290545 84.25606093 120.06969817 86.02830837 124 89 C124.825 89.556875 125.65 90.11375 126.5 90.6875 C134.17675393 97.78849738 139.77567741 108.61836063 140.3359375 119.09375 C140.36580538 120.56225401 140.37819375 122.03119576 140.375 123.5 C140.37338867 124.28101074 140.37177734 125.06202148 140.37011719 125.86669922 C140.06982959 140.37765571 135.44038864 153.07828974 125.48046875 163.671875 C113.91363106 174.52830848 96.99775241 178.36353446 81.51123047 178.22705078 C80.60801622 178.22729185 79.70480198 178.22753292 78.77421761 178.2277813 C75.88843603 178.22630412 73.00292206 178.21114556 70.1171875 178.1953125 C68.32039514 178.19236711 66.52360106 178.19032973 64.72680664 178.18920898 C58.10951137 178.17877917 51.49225298 178.15085669 44.875 178.125 C30.06625 178.08375 15.2575 178.0425 0 178 C0 119.26 0 60.52 0 0 Z " fill="#FEFEFE" transform="translate(218,124)"/>
<path d="M0 0 C13.53 0 27.06 0 41 0 C49.6528744 9.14134311 49.6528744 9.14134311 50.96484375 13.46875 C52.9922041 19.28399241 55.95892637 24.05084018 59.3125 29.1875 C60.40963388 30.95282549 61.5020137 32.72111364 62.58984375 34.4921875 C66.16707798 40.27678384 69.76862423 46.04603837 73.375 51.8125 C73.99979248 52.81152344 74.62458496 53.81054688 75.26831055 54.83984375 C77.17852705 57.89344623 79.08917851 60.94677606 81 64 C88.43698955 75.88326312 95.86969221 87.76891916 103.25 99.6875 C103.78705566 100.55463623 104.32411133 101.42177246 104.87744141 102.31518555 C105.37679199 103.1225415 105.87614258 103.92989746 106.390625 104.76171875 C106.85275391 105.50341309 107.31488281 106.24510742 107.79101562 107.00927734 C108.78567154 108.64708517 109.70809632 110.32853994 110.609375 112.01953125 C112.0036122 114.46456931 112.0036122 114.46456931 116 115 C116 77.05 116 39.1 116 0 C127.22 0 138.44 0 150 0 C150 59.07 150 118.14 150 179 C137.79 179 125.58 179 113 179 C103.6551075 167.8419194 103.6551075 167.8419194 101.7578125 162.625 C99.05907745 155.86925239 95.4749841 150.06986765 91.5 144 C90.2345661 141.99273759 88.97413231 139.98231415 87.71875 137.96875 C87.1 136.97875 86.48125 135.98875 85.84375 134.96875 C82.27426463 129.22127356 78.77598757 123.43057994 75.26953125 117.64453125 C71.06983793 110.72683417 66.80101712 103.85509299 62.5 97 C44.05374247 67.59735976 44.05374247 67.59735976 39.51074219 59.27026367 C38.13919161 56.70494898 38.13919161 56.70494898 35 56 C35 96.59 35 137.18 35 179 C23.45 179 11.9 179 0 179 C0 119.93 0 60.86 0 0 Z " fill="#FDFDFE" transform="translate(66,360)"/>
<path d="M0 0 C6.30722619 5.60965279 11.72535374 12.7141877 14.8125 20.625 C13.03419668 25.95990997 7.21111215 28.01040428 2.5625 30.8125 C1.51191406 31.46669922 0.46132813 32.12089844 -0.62109375 32.79492188 C-1.63816406 33.41302734 -2.65523437 34.03113281 -3.703125 34.66796875 C-4.63415039 35.23539795 -5.56517578 35.80282715 -6.52441406 36.38745117 C-9.37954699 37.71424516 -11.08204148 38.0667709 -14.1875 37.625 C-15.890625 35.4296875 -15.890625 35.4296875 -17.4375 32.5 C-22.68863446 23.66493792 -30.52486875 19.62056931 -40.1875 16.625 C-54.78900788 13.57122204 -68.79456759 15.43191098 -81.6796875 22.90234375 C-92.98898481 30.67087975 -97.14075008 43.4975748 -99.80953979 56.3848877 C-100.79403654 62.21984929 -100.73747971 68.11592127 -100.65405273 74.01660156 C-100.62491403 76.25660863 -100.63354559 78.49425576 -100.64648438 80.734375 C-100.62200019 97.5822661 -97.88265348 114.81596166 -85.80078125 127.42578125 C-73.76570306 137.55395617 -60.13484629 137.66697708 -45.1875 136.625 C-39.99308345 135.79787836 -35.23345126 134.1640549 -31.01171875 130.98828125 C-29.1875 129.625 -29.1875 129.625 -27.1875 129.625 C-21.23028289 117.84353938 -19.16716708 109.34033913 -18.1875 95.625 C-32.3775 95.625 -46.5675 95.625 -61.1875 95.625 C-61.1875 86.055 -61.1875 76.485 -61.1875 66.625 C-35.4475 66.625 -9.7075 66.625 16.8125 66.625 C16.8125 99.295 16.8125 131.965 16.8125 165.625 C5.5925 165.625 -5.6275 165.625 -17.1875 165.625 C-17.1875 157.705 -17.1875 149.785 -17.1875 141.625 C-20.92277902 142.87009301 -21.11807641 143.86668985 -22.9375 147.25 C-29.08555637 157.77667212 -37.16100943 163.06873724 -48.78125 166.76953125 C-66.22758708 170.82715613 -87.18131978 168.54578553 -102.5703125 159.3671875 C-121.06615255 147.05503129 -131.16361575 128.74905964 -135.69677734 107.20458984 C-141.23774561 77.7427161 -139.67826614 44.93721785 -124.1875 18.625 C-121.73314904 15.07381484 -119.07735801 11.82848601 -116.1875 8.625 C-115.58421875 7.92890625 -114.9809375 7.2328125 -114.359375 6.515625 C-87.30286512 -22.81454117 -30.79217273 -23.82275092 0 0 Z " fill="#FDFDFE" transform="translate(521.1875,136.375)"/>
<path d="M0 0 C10.23 0 20.46 0 31 0 C34.76018654 16.82683475 38.4605661 33.66455048 42.08984375 50.52001953 C42.42574888 52.07975958 42.76168597 53.63949274 43.09765625 55.19921875 C43.26057159 55.95559631 43.42348694 56.71197388 43.59133911 57.49127197 C44.58728729 62.10800959 45.59796793 66.7212213 46.62109375 71.33203125 C46.85755615 72.40163086 47.09401855 73.47123047 47.33764648 74.57324219 C47.76467268 76.50044777 48.19493051 78.42694153 48.62915039 80.35253906 C48.81340576 81.18624023 48.99766113 82.01994141 49.1875 82.87890625 C49.34605469 83.5860376 49.50460937 84.29316895 49.66796875 85.02172852 C50 87 50 87 50 91 C51.32 91 52.64 91 54 91 C54.15275391 89.08767578 54.15275391 89.08767578 54.30859375 87.13671875 C54.90801594 81.78570294 56.40202898 76.91755066 58.0625 71.8125 C61.40897476 61.19612763 64.33808143 50.49616845 67.15844727 39.73168945 C69.05616799 32.4964763 71.03333187 25.29161422 73.10522461 18.10424805 C73.8248834 15.60753278 74.53382845 13.1086664 75.23046875 10.60546875 C75.54628906 9.47753906 75.86210937 8.34960938 76.1875 7.1875 C76.51105469 6.02605469 76.83460938 4.86460937 77.16796875 3.66796875 C78 1 78 1 79 0 C81.14558827 -0.08775605 83.29404421 -0.10695219 85.44140625 -0.09765625 C86.74658203 -0.09443359 88.05175781 -0.09121094 89.39648438 -0.08789062 C90.7851569 -0.07953401 92.17382877 -0.07106905 93.5625 -0.0625 C94.95507656 -0.05748666 96.34765481 -0.05292347 97.74023438 -0.04882812 C101.1601987 -0.03699434 104.58007844 -0.0205088 108 0 C110.47053172 6.30694653 112.44721803 12.67821841 114.3125 19.1875 C114.61808838 20.24412842 114.92367676 21.30075684 115.23852539 22.3894043 C117.39620835 29.86097624 119.52445124 37.34094845 121.65063477 44.8215332 C124.13089684 53.51766932 126.70573427 62.18555311 129.28491211 70.8527832 C129.91883532 72.98306188 130.55118743 75.11380899 131.18164062 77.24511719 C131.67294645 78.89902378 132.16982287 80.55131256 132.67773438 82.20019531 C133.63251956 85.35433656 134 87.63981387 134 91 C134.99 90.67 135.98 90.34 137 90 C137.81587353 87.30804531 138.41883717 84.76028106 138.9453125 82.0078125 C139.11658661 81.17060165 139.28786072 80.33339081 139.46432495 79.47080994 C140.03016897 76.69120328 140.57738805 73.90825075 141.125 71.125 C141.51422145 69.19820227 141.90486459 67.27169123 142.296875 65.34545898 C143.11784355 61.30578138 143.93251178 57.26490438 144.74316406 53.22314453 C146.57717598 44.10730015 148.49083118 35.00814206 150.402771 25.90838623 C150.99342785 23.09381728 151.58135612 20.27869156 152.16845703 17.46337891 C152.52895516 15.73730131 152.88946866 14.01122691 153.25 12.28515625 C153.49470535 11.10988625 153.49470535 11.10988625 153.74435425 9.91087341 C154.43971787 6.58861908 155.17658886 3.29364456 156 0 C166.23 0 176.46 0 187 0 C182.59656335 21.48877083 177.59896395 42.83317852 172.19970703 64.0925293 C170.04382098 72.6566255 168.14167251 81.26943324 166.25854492 89.89697266 C164.33948172 98.62893097 162.23256294 107.30301464 160.00390625 115.9609375 C158.63295304 121.31598676 157.4307877 126.66040716 156.43847656 132.09936523 C156 134 156 134 155 135 C152.3337397 135.08855161 149.69352886 135.11524673 147.02734375 135.09765625 C146.22970108 135.0962413 145.43205841 135.09482635 144.61024475 135.09336853 C142.05262565 135.08775316 139.49509282 135.07519812 136.9375 135.0625 C135.20768355 135.05748698 133.47786574 135.05292373 131.74804688 135.04882812 C127.49866447 135.03777875 123.24934688 135.02050386 119 135 C118.8141333 134.30664551 118.6282666 133.61329102 118.43676758 132.89892578 C114.87340747 119.61401651 111.29022246 106.33613143 107.58398438 93.09033203 C106.79545167 90.26783329 106.01284787 87.44370324 105.22998047 84.61962891 C103.55008921 78.56036011 101.86194146 72.50347471 100.1640625 66.44921875 C99.84743652 65.32008057 99.53081055 64.19094238 99.20458984 63.02758789 C98.57783569 60.79355396 97.95057339 58.55966251 97.32275391 56.32592773 C97.03577637 55.30313721 96.74879883 54.28034668 96.453125 53.2265625 C96.19692383 52.31471191 95.94072266 51.40286133 95.67675781 50.46337891 C95 48 95 48 94.59667969 45.73583984 C94.39977539 45.1630127 94.20287109 44.59018555 94 44 C92.515 43.505 92.515 43.505 91 43 C90.89913086 43.62148926 90.79826172 44.24297852 90.69433594 44.88330078 C89.30564978 52.99576356 87.33421456 60.91738833 85.25 68.875 C84.89146882 70.2556019 84.53298962 71.63621729 84.17456055 73.0168457 C81.93552 81.60584984 79.57570925 90.15456437 77.08569336 98.67431641 C75.11436656 105.46120653 73.3752401 112.29440705 71.7355957 119.16870117 C70.42204204 124.60221905 68.78279777 129.6516067 67 135 C55.12 135 43.24 135 31 135 C27.16039052 119.87664023 23.44942013 104.77001419 20.06442261 89.54025269 C18.01275506 80.32384108 15.82660377 71.15109152 13.5 62 C9.99975743 48.22692038 6.86347666 34.3859315 3.79101562 20.51220703 C2.75332988 15.90475424 1.65349673 11.31258077 0.54199219 6.72241211 C0 4 0 4 0 0 Z " fill="#FDFEFE" transform="translate(391,404)"/>
<path d="M0 0 C9.61647521 8.77085469 15.44901466 21.96440846 16.23681641 34.88354492 C16.32897098 39.1530695 16.26331943 43.41824599 16.1875 47.6875 C16.17241445 49.17902283 16.15873294 50.67056055 16.14648438 52.16210938 C16.11381157 55.77505488 16.06224719 59.38742861 16 63 C12.79311929 64.60344035 9.30817153 64.12922745 5.78662109 64.11352539 C4.51334206 64.11374443 4.51334206 64.11374443 3.21434021 64.1139679 C0.40068023 64.11326966 -2.41291404 64.1054814 -5.2265625 64.09765625 C-7.17426518 64.09579175 -9.12196832 64.094368 -11.06967163 64.09336853 C-16.20220224 64.08954583 -21.33470467 64.07971765 -26.46722412 64.06866455 C-31.70210387 64.05844512 -36.93698816 64.05386977 -42.171875 64.04882812 C-52.44792907 64.03809517 -62.72396219 64.0210217 -73 64 C-72.68826343 65.76943699 -72.37377067 67.53838856 -72.05810547 69.30712891 C-71.8832663 70.29226471 -71.70842712 71.27740051 -71.52828979 72.29238892 C-69.96459574 80.30669354 -66.77336611 87.0164082 -60.3125 92.125 C-50.62215293 97.61010212 -40.53024818 98.59888831 -29.578125 96.2734375 C-19.81441932 93.28603502 -14.95949297 88.84369764 -10 80 C-6.04870966 80.56886281 -3.45088489 81.7390894 -0.13671875 83.94140625 C1.19262695 84.81635742 1.19262695 84.81635742 2.54882812 85.70898438 C3.9168457 86.62647461 3.9168457 86.62647461 5.3125 87.5625 C6.70952148 88.48579102 6.70952148 88.48579102 8.13476562 89.42773438 C10.42798356 90.94478624 12.71606762 92.46901934 15 94 C12.65747719 104.16109017 3.71654518 112.94718596 -4.625 118.75 C-15.30301075 124.66895457 -25.96870805 126.82243763 -38.03442383 126.59692383 C-40.06667136 126.5624292 -42.09457786 126.57640301 -44.12695312 126.59570312 C-61.80807499 126.57770443 -77.94402716 120.75832402 -90.78515625 108.4375 C-106.17893906 91.49619405 -109.19080577 68.83630121 -108.20703125 46.87353516 C-106.90241915 28.76588841 -99.23490409 13.31835949 -86 1 C-62.87767213 -18.59275134 -23.71250012 -18.70894505 0 0 Z " fill="#FDFEFE" transform="translate(359,415)"/>
<path d="M0 0 C1.38306901 1.62563086 2.73118119 3.28370912 4 5 C2.47147075 8.53675651 0.3583611 10.99564746 -2.25 13.8125 C-5.91708506 17.81134073 -9.49148593 21.86175264 -13 26 C-16.23697199 25.41972208 -17.76702351 24.50645963 -20.0625 22.1875 C-24.4341686 18.25110576 -29.43586731 16.66157102 -35 15 C-35.65097656 14.80535156 -36.30195312 14.61070312 -36.97265625 14.41015625 C-44.62052081 12.86290041 -52.05703635 13.52851817 -59 17 C-61.60720318 18.52277007 -61.60720318 18.52277007 -63 21 C-63.47052681 25.23474129 -63.46100711 27.80680512 -61.9375 31.75 C-56.37021676 38.21523214 -48.4630926 39.28119046 -40.5 40.9375 C-6.15423524 48.52768466 -6.15423524 48.52768466 4 63 C9.32065917 71.74108293 10.39393353 82.36297556 8.3125 92.2734375 C5.00427678 104.10033551 -0.80037016 112.9029328 -11.3125 119.4375 C-22.29067862 125.34882695 -33.5080164 126.53732721 -45.8125 126.4375 C-46.473638 126.43379395 -47.134776 126.43008789 -47.81594849 126.42626953 C-65.46425213 126.2853713 -82.77397673 122.46713563 -95.8125 109.6875 C-97.80111919 107.5232853 -99.36062891 105.45905663 -101 103 C-100.81398912 98.90776065 -98.21845058 96.94741233 -95.375 94.25 C-91.00260738 90.01581519 -86.92310093 85.65056335 -83 81 C-79.27422765 81.55927709 -77.7914916 82.98517079 -75.3125 85.75 C-71.2767403 89.9355096 -67.23191378 92.53352636 -62 95 C-60.845 95.598125 -59.69 96.19625 -58.5 96.8125 C-50.8649425 99.50632069 -39.87331887 99.30667151 -32.1875 96.875 C-28.401567 94.64798059 -26.84034471 92.98741353 -25 89 C-24.54152411 85.26669636 -24.69079746 82.83098182 -26 79.3125 C-32.47398918 71.82695001 -44.26237226 70.81639344 -53.3828125 68.73242188 C-67.2488188 65.44638893 -82.36745751 60.6844592 -90.75 48.27734375 C-96.12437871 38.48589753 -97.79868151 27.89196777 -95.3046875 16.94921875 C-91.69235473 5.97561961 -84.53242529 -2.10654818 -74.5 -7.6875 C-51.78920379 -18.24274262 -19.76591978 -15.40908819 0 0 Z " fill="#FDFEFE" transform="translate(690,415)"/>
<path d="M0 0 C7.87875 -0.0825 15.7575 -0.165 23.875 -0.25 C26.34210449 -0.28641602 28.80920898 -0.32283203 31.35107422 -0.36035156 C33.33560316 -0.37204851 35.32014181 -0.38223794 37.3046875 -0.390625 C38.81494507 -0.4213208 38.81494507 -0.4213208 40.35571289 -0.45263672 C48.79589452 -0.45674286 55.24666615 1.6367898 62.375 6.125 C68.92740206 13.30144035 69.87533301 21.72549845 69.453125 31.140625 C68.66444828 37.85797503 66.32242761 42.67757239 61.5625 47.4375 C52.85175599 52.74892928 45.23097457 53.15096915 35.25390625 53.09765625 C34.35667847 53.09664917 33.45945068 53.09564209 32.53503418 53.09460449 C29.21084296 53.08940627 25.88667008 53.07544521 22.5625 53.0625 C15.116875 53.041875 7.67125 53.02125 0 53 C0 35.51 0 18.02 0 0 Z " fill="#7B9CED" transform="translate(253,221)"/>
<path d="M0 0 C1.03110204 -0.00145344 2.06220407 -0.00290688 3.12455162 -0.00440437 C6.60203574 -0.00807257 10.07947626 -0.00457411 13.55696011 -0.0011425 C16.06630346 -0.00229399 18.57564665 -0.00388171 21.08498949 -0.00586975 C26.55233665 -0.00918301 32.01967031 -0.00936939 37.48701763 -0.00682259 C45.61699837 -0.00304573 53.74697076 -0.00497091 61.87695144 -0.00803089 C76.39539079 -0.01330181 90.91382575 -0.0128382 105.43226552 -0.00995198 C118.13679917 -0.00743868 130.84133121 -0.00677867 143.54586506 -0.00797462 C144.80882703 -0.0080892 144.80882703 -0.0080892 146.09730338 -0.00820609 C149.5149458 -0.00851742 152.93258823 -0.00883582 156.35023065 -0.00916586 C188.42413211 -0.01222633 220.49803076 -0.00944901 252.57193178 -0.00406896 C281.08390541 0.00067724 309.59587458 0.00025182 338.10784817 -0.00452995 C370.12374405 -0.0098814 402.13963746 -0.01200973 434.15553373 -0.00891769 C437.56672124 -0.00859696 440.97790875 -0.00828412 444.38909626 -0.00797462 C445.64902621 -0.00785601 445.64902621 -0.00785601 446.93440929 -0.007735 C459.63339279 -0.00659625 472.33237451 -0.00793016 485.03135777 -0.01045418 C499.46602919 -0.01330883 513.90069553 -0.01260844 528.33536632 -0.00717343 C536.41963011 -0.00423015 544.50388288 -0.00405555 552.58814639 -0.00781961 C558.61299974 -0.01031608 564.63783869 -0.00762204 570.66269117 -0.00284503 C573.10876073 -0.00172206 575.55483176 -0.0023094 578.0009004 -0.00472082 C581.30961733 -0.00773407 584.61827303 -0.00467054 587.92698669 0 C588.89049143 -0.00234117 589.85399617 -0.00468233 590.84669802 -0.00709444 C591.72592372 -0.00459092 592.60514943 -0.00208741 593.51101834 0.00049198 C594.26796547 0.00055974 595.02491261 0.00062749 595.80479753 0.00069731 C597.9483242 0.12869249 599.83950817 0.53801419 601.90057278 1.12584114 C601.90057278 1.78584114 601.90057278 2.44584114 601.90057278 3.12584114 C602.76682278 3.18771614 603.63307278 3.24959114 604.52557278 3.31334114 C608.90973708 4.3687881 610.69235866 5.99401308 613.90057278 9.12584114 C613.90057278 9.78584114 613.90057278 10.44584114 613.90057278 11.12584114 C614.89057278 11.45584114 615.88057278 11.78584114 616.90057278 12.12584114 C623.88010123 20.32766722 622.59296786 31.46026092 622.52203274 41.50393867 C622.52636453 43.48749032 622.53288306 45.47103819 622.5413928 47.45457631 C622.55836257 52.89138586 622.544218 58.3277339 622.52487803 63.7645191 C622.50943943 69.63298898 622.52285582 75.50140275 622.53262234 81.36987495 C622.54714476 92.85988685 622.53491944 104.34972197 622.51350909 115.83971711 C622.49674996 125.17628821 622.49033101 134.51281825 622.49177456 143.8494072 C622.49191207 144.84502197 622.49191207 144.84502197 622.49205237 145.86075018 C622.49244553 148.55517306 622.49289516 151.24959593 622.49342375 153.94401879 C622.49829257 179.2083231 622.47564671 204.47253443 622.43946753 229.73680984 C622.4074642 252.18087792 622.39542597 274.62486662 622.40154934 297.06895638 C622.40193618 298.51054508 622.40232264 299.95213379 622.40270871 301.3937225 C622.40290006 302.10641877 622.4030914 302.81911505 622.40328855 303.55340818 C622.40424289 307.14105798 622.40515726 310.72870779 622.40602779 314.31635761 C622.40628848 315.37805166 622.40628848 315.37805166 622.40655444 316.46119408 C622.41090929 335.22016978 622.40089626 353.97913692 622.38618994 372.73810655 C622.3856698 373.40537521 622.38514965 374.07264386 622.38461375 374.76013278 C622.38383473 375.75920303 622.38383473 375.75920303 622.38303998 376.77845651 C622.38252224 377.44328022 622.3820045 378.10810393 622.38147107 378.79307381 C622.38042299 380.13195189 622.37936277 381.47082997 622.37829035 382.80970804 C622.37038623 392.8055912 622.36903893 402.8014555 622.37058926 412.79734039 C622.37202789 424.16091301 622.36235729 435.52441431 622.3386429 446.88796326 C622.32677124 452.68726733 622.31966559 458.48647192 622.32548046 464.28578758 C622.33064401 469.59223308 622.32199321 474.89846818 622.30220586 480.20487765 C622.29745779 482.12662286 622.29777663 484.0483885 622.30361623 485.9701307 C622.31077916 488.57903892 622.29954874 491.18724642 622.28368282 493.79610157 C622.29013463 494.54493981 622.29658643 495.29377805 622.30323374 496.06530836 C622.24467021 501.1837495 621.13105005 504.62366357 618.90057278 509.12584114 C618.24057278 509.12584114 617.58057278 509.12584114 616.90057278 509.12584114 C616.57057278 510.44584114 616.24057278 511.76584114 615.90057278 513.12584114 C615.24057278 513.12584114 614.58057278 513.12584114 613.90057278 513.12584114 C613.5544595 514.03076302 613.5544595 514.03076302 613.20135403 514.95396614 C611.54475299 517.71994264 609.96952082 518.47615723 607.08807278 519.87584114 C605.80996731 520.51779427 605.80996731 520.51779427 604.50604153 521.17271614 C601.77906959 522.17028908 599.77837142 522.3118389 596.90057278 522.12584114 C599.2292234 520.57340739 601.26316704 519.46200913 603.77557278 518.31334114 C607.54217097 516.45073764 610.10584061 514.30873056 612.90057278 511.12584114 C613.60182278 510.40396614 614.30307278 509.68209114 615.02557278 508.93834114 C621.36124531 499.43483234 620.32650646 488.07628528 620.28825283 477.14084053 C620.29242866 475.19996491 620.29790754 473.25909173 620.30457264 471.31822306 C620.31901285 465.99940353 620.31478696 460.68073915 620.30740583 455.36191118 C620.30267306 449.62019677 620.31518487 443.87851586 620.32542324 438.13681221 C620.34261341 426.89483413 620.34345092 415.65291194 620.33821034 404.41092413 C620.33416842 395.27460105 620.33561245 386.13829449 620.3409586 377.0019722 C620.34170702 375.70150582 620.34245544 374.40103944 620.34322654 373.06116499 C620.34475802 370.41928191 620.34629636 367.77739883 620.34784151 365.13551576 C620.35766882 347.40023049 620.36183541 329.66495232 620.35421562 311.92966557 C620.35391845 311.23650837 620.35362128 310.54335117 620.3533151 309.82918921 C620.35086625 304.20055522 620.34825462 298.57192131 620.34563096 292.9432874 C620.33552591 270.98254386 620.34389044 249.02187676 620.36712551 227.06114388 C620.39319895 202.37789253 620.40599658 177.69468895 620.39893776 153.01142317 C620.3954427 139.9455389 620.39769678 126.8797174 620.41518879 113.81384277 C620.42989186 102.69333203 620.43057078 91.5729283 620.41311788 80.45241969 C620.40459066 74.77839657 620.40250058 69.10456479 620.41776943 63.43055153 C620.43157456 58.23621688 620.42690703 53.04223825 620.4075302 47.84792442 C620.40375712 45.96920723 620.40672965 44.09046181 620.41714185 42.21176969 C620.67613529 29.10783212 620.67613529 29.10783212 615.90057278 17.12584114 C615.23154934 15.91154427 615.23154934 15.91154427 614.54901028 14.67271614 C610.0388305 8.30865878 604.17874706 5.55189923 596.90057278 3.12584114 C595.48473823 3.03472337 594.06499437 2.9984287 592.64623153 2.99703997 C591.77171144 2.99376778 590.89719134 2.99049559 589.99617064 2.98712423 C589.03278663 2.98860786 588.06940261 2.99009148 587.07682514 2.99162006 C586.05121715 2.98926783 585.02560916 2.9869156 583.96892214 2.98449209 C580.49803898 2.97778249 577.02719309 2.97826091 573.55630398 2.97867012 C571.05637464 2.97537272 568.55644584 2.97164741 566.05651772 2.96752864 C559.88441836 2.95854144 553.71233022 2.95427876 547.5402252 2.95200968 C540.15010897 2.94905043 532.76000229 2.94035466 525.36989107 2.9315954 C507.50584488 2.91073852 489.64179702 2.90027924 471.77774149 2.89146579 C463.32898049 2.88726104 454.88022021 2.88203882 446.43145981 2.87678126 C417.51816526 2.85888998 388.6048705 2.84389335 359.69157124 2.83646107 C357.87594436 2.83598631 356.06031748 2.83551042 354.2446906 2.83503341 C353.34429034 2.83479703 352.44389009 2.83456065 351.51620497 2.83431711 C346.9542234 2.8331159 342.39224184 2.83190045 337.83026028 2.83067513 C336.47224424 2.8303149 336.47224424 2.8303149 335.08679354 2.8299474 C305.72913303 2.82205334 276.37151292 2.79861987 247.01387005 2.76611918 C215.98536591 2.73183138 184.95688541 2.7121109 153.92836201 2.70881683 C150.52295151 2.70839928 147.11754103 2.70791971 143.71213055 2.70739365 C142.87360451 2.70727045 142.03507848 2.70714726 141.17114257 2.70702034 C127.66909714 2.70468699 114.16709856 2.68901952 100.66506984 2.6685518 C87.09619265 2.64830889 73.52737181 2.64280922 59.95848231 2.65232243 C51.89520849 2.6575434 43.83212211 2.65163193 35.76887521 2.62978776 C29.7506684 2.61471468 23.73267307 2.62050285 17.71445562 2.63445828 C15.27765516 2.63684773 12.84083681 2.63244211 10.40406381 2.62062963 C7.09550848 2.605582 3.78789882 2.61513487 0.47936726 2.63085651 C-0.46996976 2.62063431 -1.41930678 2.6104121 -2.39741158 2.59988013 C-11.63291257 2.69586881 -18.62609053 5.95227894 -25.37286472 12.18834114 C-30.76276868 18.23674015 -32.24884963 24.96562972 -32.23923492 32.86409855 C-32.24218635 33.66425405 -32.24513777 34.46440955 -32.24817863 35.28881219 C-32.25689907 37.9927941 -32.25845295 40.69673338 -32.2600565 43.40072823 C-32.26478548 45.34992149 -32.26993612 47.29911377 -32.27547413 49.2483049 C-32.28940698 54.62270323 -32.2969714 59.99709476 -32.30344713 65.37150657 C-32.30981064 69.97691239 -32.31988184 74.58230701 -32.33000778 79.18770587 C-32.36336093 94.36415182 -32.38485946 109.54060459 -32.40320763 124.7170752 C-32.40800138 128.66828395 -32.41298486 132.61949242 -32.41801286 136.57070088 C-32.44898461 161.09921737 -32.4756789 185.62773571 -32.49243164 210.15626621 C-32.49636886 215.84005361 -32.5003807 221.52384095 -32.50445652 227.20762825 C-32.50495819 227.91376592 -32.50545986 228.61990359 -32.50597673 229.34743937 C-32.52238865 252.23342376 -32.56083596 275.11930111 -32.61174362 298.00523287 C-32.66398833 321.5351708 -32.69674964 345.06505176 -32.70400917 368.59504887 C-32.70829583 382.4520803 -32.72201813 396.30893639 -32.76437283 410.16590881 C-32.79866722 421.39960751 -32.81261445 432.63309719 -32.79994868 443.86684524 C-32.7941204 449.59800136 -32.79799846 455.3287154 -32.82811832 461.05980492 C-32.8554865 466.31020935 -32.85497722 471.55985773 -32.83260787 476.81027902 C-32.82938621 478.70609462 -32.83624578 480.60196091 -32.8544051 482.49769228 C-32.9587053 494.09228648 -32.44625528 503.92301155 -24.35446924 513.10614294 C-20.31128383 517.02592406 -15.29544137 519.12284249 -10.09942722 521.12584114 C-10.09942722 521.45584114 -10.09942722 521.78584114 -10.09942722 522.12584114 C-18.03213705 521.84253008 -22.08381196 518.76980804 -27.82989597 513.55552864 C-29.09942722 512.12584114 -29.09942722 512.12584114 -29.09942722 510.12584114 C-29.75942722 510.12584114 -30.41942722 510.12584114 -31.09942722 510.12584114 C-34.57919725 503.62018413 -35.24814173 498.40944506 -35.22526836 491.10631752 C-35.2267218 490.30006878 -35.22817525 489.49382004 -35.22967273 488.66313952 C-35.23333392 485.95053326 -35.22984573 483.23798316 -35.22641087 480.52537727 C-35.22756263 478.56534499 -35.22915054 476.60531293 -35.23113811 474.64528131 C-35.23532375 469.25047774 -35.23324416 463.85569179 -35.23015189 458.46088815 C-35.22789492 452.64623725 -35.2313789 446.83158945 -35.23413181 441.01693916 C-35.23858529 429.6225609 -35.23761491 418.22818921 -35.23471917 406.83381069 C-35.23246349 397.57577134 -35.23215334 388.31773384 -35.23324299 379.05969429 C-35.23339622 377.74351877 -35.23354945 376.42734324 -35.23370733 375.07128361 C-35.23394527 373.06798038 -35.23418648 371.06467715 -35.23443422 369.06137392 C-35.23749423 344.01958369 -35.23471817 318.97779706 -35.22933733 293.93600739 C-35.22459161 271.68076125 -35.22501623 249.42552083 -35.22979832 227.17027473 C-35.23515125 202.17471081 -35.23727723 177.17915006 -35.23418605 152.18358564 C-35.23386533 149.51971976 -35.23355312 146.85585388 -35.23324299 144.19198799 C-35.23308871 142.88121411 -35.23293444 141.57044024 -35.23277549 140.21994594 C-35.231911 130.96987267 -35.23337175 121.71980143 -35.23572254 112.46972847 C-35.23852318 101.20152679 -35.23777667 89.93333209 -35.2324418 78.66513121 C-35.22980837 72.91271622 -35.2287937 67.16031286 -35.23209095 61.40789795 C-35.23506123 56.14645854 -35.23344877 50.8850416 -35.2281134 45.62360424 C-35.22699236 43.71587138 -35.2275735 41.80813665 -35.22998919 39.90040499 C-35.23301251 37.31536427 -35.22992846 34.73040136 -35.22526836 32.14536476 C-35.22760953 31.39786498 -35.2299507 30.6503652 -35.23236281 29.88021392 C-35.21891551 26.16952722 -34.98783942 22.73407991 -34.09942722 19.12584114 C-33.43942722 19.12584114 -32.77942722 19.12584114 -32.09942722 19.12584114 C-32.03755222 18.42459114 -31.97567722 17.72334114 -31.91192722 17.00084114 C-30.34908842 11.47079614 -25.81286096 7.2298097 -21.09942722 4.12584114 C-17.78692722 3.37584114 -17.78692722 3.37584114 -15.09942722 3.12584114 C-15.09942722 2.46584114 -15.09942722 1.80584114 -15.09942722 1.12584114 C-10.10084863 -0.19050829 -5.12813253 -0.01249091 0 0 Z " fill="#FEFEFE" transform="translate(86.09942722320557,62.87415885925293)"/>
<path d="M0 0 C6.414375 -0.061875 12.82875 -0.12375 19.4375 -0.1875 C21.44384521 -0.21481201 23.45019043 -0.24212402 25.51733398 -0.27026367 C27.13524781 -0.27903821 28.75316835 -0.28667985 30.37109375 -0.29296875 C31.59753601 -0.3159906 31.59753601 -0.3159906 32.84875488 -0.33947754 C39.91218373 -0.34263508 46.65804096 0.92969682 52.375 5.3125 C56.65002554 9.68931186 58.36230879 13.64892604 58.46801758 19.81152344 C58.45794678 20.4924707 58.44787598 21.17341797 58.4375 21.875 C58.43065186 22.58172852 58.42380371 23.28845703 58.41674805 24.01660156 C58.20036255 31.04143098 56.67552571 35.1715871 51.8125 40.3125 C44.95886104 44.42468338 38.25177511 45.44089897 30.37109375 45.29296875 C29.59382935 45.28994751 28.81656494 45.28692627 28.01574707 45.28381348 C25.15619321 45.26830507 22.296831 45.22642355 19.4375 45.1875 C9.8159375 45.0946875 9.8159375 45.0946875 0 45 C0 30.15 0 15.3 0 0 Z " fill="#7C9CED" transform="translate(253,150)"/>
<path d="M0 0 C5.41258198 4.54123829 8.8365174 9.99694285 10 17 C10 19.64 10 22.28 10 25 C-8.48 25 -26.96 25 -46 25 C-44.92417729 15.31759563 -43.37067909 8.77905526 -36.1875 2.0625 C-25.99049471 -5.95889191 -11.16692231 -7.0790311 0 0 Z " fill="#7C9DED" transform="translate(333,432)"/>
<path d="M0 0 C0.66 0.33 1.32 0.66 2 1 C1.14285714 9.57142857 1.14285714 9.57142857 -1 13 C-1.66 13 -2.32 13 -3 13 C-3.33 14.32 -3.66 15.64 -4 17 C-4.66 17 -5.32 17 -6 17 C-6.23074219 17.60328125 -6.46148438 18.2065625 -6.69921875 18.828125 C-8.35581978 21.5941015 -9.93105195 22.35031609 -12.8125 23.75 C-13.66457031 24.17796875 -14.51664063 24.6059375 -15.39453125 25.046875 C-18.12150319 26.04444794 -20.12220136 26.18599776 -23 26 C-20.67134937 24.44756625 -18.63740574 23.33616799 -16.125 22.1875 C-12.3584018 20.3248965 -9.79473217 18.18288942 -7 15 C-6.29875 14.278125 -5.5975 13.55625 -4.875 12.8125 C-2.22446802 8.83670203 -1.17818552 4.59670865 0 0 Z " fill="#F4F7FD" transform="translate(706,559)"/>
<path d="M0 0 C0.53625 0.680625 1.0725 1.36125 1.625 2.0625 C2.40875 3.031875 3.1925 4.00125 4 5 C4.40089844 5.56589844 4.80179688 6.13179687 5.21484375 6.71484375 C9.42919212 12.2973284 14.56981848 14.5171719 21 17 C21 17.33 21 17.66 21 18 C13.06729017 17.71668893 9.01561526 14.6439669 3.26953125 9.4296875 C2 8 2 8 2 6 C1.34 6 0.68 6 0 6 C-1.125 2.25 -1.125 2.25 0 0 Z " fill="#F5F7FD" transform="translate(55,567)"/>
</svg>
